<?xml version="1.0" encoding="utf-8"?>
<!-- Generator: Adobe Illustrator 25.2.3, SVG Export Plug-In . SVG Version: 6.00 Build 0)  -->
<svg version="1.1" id="Layer_1" xmlns="http://www.w3.org/2000/svg" xmlns:xlink="http://www.w3.org/1999/xlink" x="0px" y="0px"
	 viewBox="0 0 800 512" style="enable-background:new 0 0 800 512;" xml:space="preserve">
<style type="text/css">
	.st0{fill:none;stroke:#2F9949;stroke-width:6;stroke-miterlimit:10;}
	.st1{fill:#2F9949;}
</style>
<g>
	<g>
		<g>
			<path class="st0" d="M332.94,243.94v20.87h-15.68v29.32h-25.79v-29.32h-56.13l-1.02-16.14l56.78-89.62h26.16v84.89H332.94z
				 M291.47,243.94v-50.19l-2.5,4.45l-29.32,45.74H291.47z"/>
			<path class="st0" d="M440.88,265.78c-2.01,6.65-4.9,12.2-8.68,16.65c-3.77,4.52-8.38,7.92-13.82,10.21
				c-5.44,2.29-11.57,3.43-18.37,3.43c-6.74,0-12.84-1.15-18.28-3.43c-5.44-2.29-10.05-5.69-13.82-10.21
				c-3.84-4.45-6.79-10-8.86-16.65c-2.07-6.65-3.11-14.33-3.11-23.05v-32.29c0-8.72,1.02-16.4,3.06-23.05
				c2.04-6.65,4.98-12.23,8.81-16.75c3.77-4.45,8.36-7.82,13.78-10.11c5.41-2.29,11.49-3.43,18.23-3.43c6.8,0,12.93,1.15,18.37,3.43
				c5.44,2.29,10.08,5.66,13.92,10.11c3.77,4.52,6.68,10.1,8.72,16.75c2.04,6.65,3.06,14.33,3.06,23.05v32.29
				C443.89,251.45,442.89,259.14,440.88,265.78z M417.92,204.79c-0.12-5.07-0.66-9.42-1.62-13.03s-2.37-6.51-4.22-8.67
				c-1.42-1.73-3.17-3.02-5.24-3.85s-4.41-1.25-7-1.25c-2.91,0-5.46,0.54-7.65,1.62c-2.2,1.08-4.04,2.71-5.52,4.87
				c-1.61,2.29-2.8,5.26-3.57,8.91c-0.77,3.65-1.16,7.98-1.16,12.99v14.94c0,2.97,0,4.95,0,5.94c0,0.99,0,2.44,0,4.36L417.92,204.79
				z M417.92,230.95c0-2.04,0-3.54,0-4.5c0-0.96,0-2.33,0-4.13l-36,26.72c0.12,4.08,0.54,7.7,1.25,10.85
				c0.71,3.15,1.71,5.78,3.01,7.89c1.48,2.54,3.37,4.42,5.66,5.66c2.29,1.24,5.01,1.86,8.16,1.86c2.91,0,5.47-0.54,7.7-1.62
				c2.23-1.08,4.08-2.74,5.57-4.96c1.54-2.35,2.71-5.37,3.48-9.04c0.77-3.68,1.16-8.02,1.16-13.03V230.95z"/>
			<path class="st0" d="M560.97,243.94v20.87h-15.68v29.32H519.5v-29.32h-56.13l-1.02-16.14l56.78-89.62h26.16v84.89H560.97z
				 M519.5,243.94v-50.19l-2.5,4.45l-29.32,45.74H519.5z"/>
		</g>
	</g>
	<g>
		<g>
			<path class="st1" d="M192.97,319.73h4.13l0.22,2.88c0.36-0.46,0.75-0.87,1.17-1.23c0.42-0.37,0.88-0.68,1.37-0.94
				c0.68-0.39,1.44-0.69,2.28-0.89c0.84-0.2,1.74-0.3,2.7-0.3c1.69,0,3.19,0.33,4.49,1c1.3,0.67,2.39,1.6,3.27,2.78
				c0.88,1.19,1.55,2.61,2,4.26c0.46,1.65,0.68,3.46,0.68,5.43v0.51c0,1.89-0.23,3.65-0.68,5.29c-0.46,1.63-1.12,3.06-2,4.26
				c-0.88,1.21-1.97,2.15-3.26,2.83s-2.77,1.03-4.43,1.03c-1.01,0-1.95-0.11-2.82-0.32c-0.87-0.21-1.66-0.51-2.36-0.9
				c-0.42-0.24-0.82-0.52-1.2-0.82c-0.37-0.3-0.72-0.63-1.05-0.99v12.7h-4.52V319.73z M210.34,329.05
				c-0.29-1.16-0.72-2.19-1.31-3.09c-0.6-0.88-1.36-1.58-2.27-2.1c-0.91-0.52-2-0.78-3.27-0.78c-0.7,0-1.35,0.08-1.94,0.24
				c-0.59,0.16-1.13,0.4-1.6,0.71c-0.52,0.31-0.98,0.69-1.39,1.15c-0.41,0.46-0.77,0.96-1.07,1.51v12.72
				c0.28,0.49,0.59,0.94,0.95,1.37c0.36,0.42,0.76,0.78,1.22,1.07c0.52,0.34,1.1,0.61,1.75,0.81c0.64,0.2,1.35,0.29,2.14,0.29
				c1.25,0,2.34-0.26,3.25-0.79c0.91-0.53,1.66-1.24,2.25-2.14c0.59-0.89,1.02-1.93,1.31-3.1c0.28-1.17,0.43-2.4,0.43-3.69v-0.51
				C210.76,331.44,210.62,330.21,210.34,329.05z"/>
			<path class="st1" d="M239.93,344.87c-0.11-0.51-0.18-1.05-0.23-1.6c-0.46,0.46-0.96,0.89-1.53,1.29
				c-0.56,0.41-1.18,0.77-1.84,1.07c-0.68,0.31-1.41,0.55-2.17,0.73c-0.77,0.18-1.58,0.27-2.44,0.27c-1.4,0-2.67-0.2-3.8-0.61
				c-1.13-0.41-2.09-0.96-2.87-1.66c-0.8-0.68-1.41-1.5-1.84-2.45c-0.43-0.95-0.65-1.98-0.65-3.09c0-1.45,0.29-2.72,0.87-3.81
				c0.58-1.09,1.4-2,2.45-2.73c1.06-0.72,2.33-1.25,3.82-1.61c1.49-0.36,3.15-0.54,4.99-0.54h4.93v-2.08c0-0.8-0.15-1.51-0.44-2.15
				s-0.71-1.18-1.25-1.64c-0.54-0.44-1.19-0.78-1.97-1.03c-0.77-0.24-1.64-0.37-2.6-0.37c-0.9,0-1.7,0.11-2.4,0.34
				c-0.71,0.23-1.31,0.53-1.79,0.9c-0.49,0.38-0.87,0.82-1.14,1.33c-0.27,0.51-0.4,1.05-0.4,1.6h-4.54c0.02-0.96,0.26-1.9,0.74-2.83
				c0.48-0.93,1.18-1.77,2.09-2.51c0.9-0.73,1.99-1.33,3.28-1.78c1.29-0.46,2.76-0.68,4.41-0.68c1.5,0,2.89,0.18,4.17,0.55
				c1.29,0.37,2.4,0.92,3.34,1.65c0.93,0.75,1.66,1.68,2.2,2.78c0.54,1.11,0.81,2.4,0.81,3.88v12.28c0,0.88,0.08,1.81,0.24,2.79
				c0.16,0.99,0.39,1.84,0.68,2.58v0.39h-4.71C240.17,345.81,240.03,345.38,239.93,344.87z M234.84,342.37
				c0.76-0.23,1.46-0.53,2.1-0.9c0.62-0.37,1.16-0.8,1.61-1.28c0.46-0.48,0.81-0.98,1.07-1.5v-5.35h-4.2c-1.56,0-2.93,0.13-4.09,0.4
				c-1.16,0.27-2.09,0.68-2.77,1.23c-0.49,0.39-0.86,0.85-1.11,1.39c-0.25,0.54-0.38,1.15-0.38,1.83c0,0.65,0.11,1.25,0.33,1.81
				c0.22,0.55,0.55,1.03,0.99,1.42c0.44,0.41,0.99,0.72,1.66,0.95c0.67,0.23,1.44,0.34,2.32,0.34S234.07,342.59,234.84,342.37z"/>
			<path class="st1" d="M252.89,327.29c0.48-1.65,1.18-3.07,2.09-4.26c0.91-1.19,2.02-2.12,3.32-2.78c1.3-0.67,2.77-1,4.42-1
				c1.06,0,2.03,0.12,2.92,0.37c0.89,0.24,1.69,0.6,2.4,1.07c0.39,0.24,0.76,0.53,1.11,0.85c0.35,0.33,0.68,0.68,0.99,1.07
				l0.22-2.88h4.1v25.85c0,1.74-0.27,3.29-0.82,4.64c-0.55,1.35-1.31,2.5-2.28,3.44c-0.99,0.94-2.17,1.66-3.54,2.15
				s-2.88,0.73-4.54,0.73c-0.68,0-1.46-0.08-2.34-0.23c-0.88-0.15-1.77-0.41-2.66-0.77c-0.91-0.34-1.79-0.81-2.62-1.39
				c-0.84-0.59-1.56-1.31-2.16-2.17l2.34-2.71c0.55,0.67,1.12,1.23,1.71,1.7c0.59,0.46,1.18,0.83,1.78,1.11
				c0.6,0.28,1.2,0.48,1.81,0.6c0.6,0.12,1.2,0.18,1.81,0.18c1.07,0,2.04-0.16,2.91-0.46c0.86-0.31,1.6-0.77,2.22-1.37
				c0.6-0.59,1.07-1.32,1.39-2.2c0.33-0.88,0.49-1.89,0.49-3.03v-2.27c-0.34,0.39-0.7,0.75-1.09,1.07
				c-0.38,0.33-0.79,0.61-1.23,0.85c-0.68,0.38-1.44,0.66-2.27,0.87c-0.83,0.2-1.73,0.3-2.69,0.3c-1.61,0-3.07-0.34-4.37-1.03
				c-1.3-0.68-2.4-1.63-3.3-2.83c-0.91-1.2-1.61-2.62-2.1-4.26c-0.49-1.64-0.73-3.4-0.73-5.29v-0.51
				C252.17,330.75,252.41,328.94,252.89,327.29z M257.09,336.9c0.27,1.16,0.7,2.17,1.28,3.05c0.57,0.88,1.3,1.57,2.2,2.09
				c0.9,0.51,1.97,0.77,3.22,0.77c0.78,0,1.48-0.09,2.11-0.28c0.63-0.19,1.19-0.45,1.7-0.79c0.49-0.34,0.93-0.75,1.32-1.22
				c0.39-0.47,0.73-0.99,1.03-1.56v-12.11c-0.29-0.55-0.63-1.06-1.03-1.51c-0.39-0.46-0.84-0.85-1.34-1.2
				c-0.5-0.33-1.07-0.58-1.68-0.77c-0.62-0.19-1.3-0.28-2.05-0.28c-1.27,0-2.36,0.26-3.26,0.78c-0.9,0.52-1.64,1.22-2.21,2.1
				c-0.59,0.9-1.01,1.92-1.28,3.09c-0.27,1.16-0.4,2.39-0.4,3.67v0.51C256.69,334.52,256.82,335.74,257.09,336.9z"/>
			<path class="st1" d="M289.56,345.69c-1.55-0.63-2.89-1.52-3.99-2.66c-1.11-1.14-1.97-2.49-2.59-4.05
				c-0.62-1.56-0.93-3.26-0.93-5.1v-1.03c0-2.13,0.34-4.04,1.03-5.73c0.68-1.68,1.59-3.11,2.73-4.28c1.12-1.16,2.4-2.04,3.85-2.66
				c1.44-0.62,2.92-0.93,4.43-0.93c1.9,0,3.57,0.33,4.99,0.99c1.42,0.66,2.61,1.57,3.55,2.72c0.94,1.17,1.65,2.55,2.11,4.13
				c0.46,1.58,0.7,3.29,0.7,5.13v2.03h-18.87v0.17c0.11,1.29,0.37,2.42,0.77,3.39c0.4,0.98,0.95,1.84,1.65,2.59
				c0.72,0.8,1.58,1.42,2.59,1.88c1.01,0.46,2.12,0.68,3.34,0.68c1.61,0,3.04-0.33,4.3-0.98c1.25-0.65,2.29-1.51,3.12-2.59
				l2.76,2.15c-0.88,1.33-2.19,2.52-3.94,3.55c-1.75,1.03-3.91,1.55-6.48,1.55C292.82,346.64,291.11,346.32,289.56,345.69z
				 M291.5,323.46c-0.81,0.33-1.55,0.82-2.2,1.45c-0.65,0.65-1.2,1.44-1.65,2.38c-0.45,0.94-0.76,2.01-0.94,3.23h14.21v-0.22
				c0-0.81-0.15-1.69-0.46-2.62c-0.31-0.94-0.74-1.75-1.29-2.43c-0.55-0.68-1.25-1.24-2.09-1.66c-0.84-0.42-1.84-0.63-2.99-0.63
				C293.18,322.96,292.31,323.12,291.5,323.46z"/>
			<path class="st1" d="M343.01,319.73h4.05l0.32,3.91c0.39-0.55,0.82-1.06,1.28-1.53c0.46-0.46,0.96-0.87,1.48-1.21
				c0.78-0.52,1.63-0.92,2.55-1.21c0.92-0.28,1.89-0.43,2.92-0.45c1.38,0,2.64,0.2,3.77,0.59c1.13,0.39,2.1,1,2.89,1.83
				s1.41,1.88,1.84,3.16c0.43,1.28,0.65,2.8,0.65,4.55v16.77h-4.52v-16.67c0-1.17-0.13-2.16-0.39-2.98
				c-0.26-0.81-0.64-1.47-1.15-1.98c-0.52-0.5-1.15-0.87-1.89-1.1c-0.74-0.23-1.59-0.34-2.55-0.34c-0.83,0-1.6,0.12-2.32,0.35
				c-0.72,0.24-1.38,0.56-1.98,0.96c-0.49,0.36-0.94,0.77-1.35,1.25c-0.42,0.47-0.78,0.99-1.09,1.56v18.95h-4.52V319.73z"/>
			<path class="st1" d="M372.58,327.39c0.55-1.64,1.35-3.06,2.39-4.26c1.03-1.2,2.28-2.15,3.76-2.84c1.48-0.69,3.15-1.04,5-1.04
				c1.87,0,3.55,0.35,5.04,1.04c1.49,0.69,2.75,1.64,3.8,2.84c1.03,1.21,1.81,2.62,2.37,4.26c0.55,1.63,0.83,3.41,0.83,5.31v0.54
				c0,1.9-0.28,3.67-0.83,5.3c-0.55,1.63-1.34,3.04-2.37,4.25c-1.04,1.21-2.3,2.15-3.78,2.83c-1.48,0.68-3.15,1.03-5,1.03
				c-1.87,0-3.55-0.34-5.04-1.03c-1.49-0.68-2.75-1.63-3.77-2.83c-1.04-1.2-1.84-2.62-2.39-4.25c-0.55-1.63-0.83-3.39-0.83-5.3
				v-0.54C371.75,330.79,372.03,329.02,372.58,327.39z M376.73,336.96c0.31,1.18,0.78,2.22,1.42,3.11c0.62,0.9,1.4,1.6,2.34,2.12
				c0.94,0.52,2.04,0.78,3.3,0.78c1.24,0,2.32-0.26,3.26-0.78c0.94-0.52,1.72-1.23,2.36-2.12c0.62-0.89,1.08-1.93,1.39-3.11
				c0.31-1.18,0.46-2.42,0.46-3.72v-0.54c0-1.29-0.16-2.52-0.48-3.7c-0.32-1.18-0.79-2.22-1.4-3.11c-0.63-0.89-1.42-1.61-2.36-2.14
				c-0.94-0.53-2.03-0.79-3.28-0.79c-1.25,0-2.34,0.26-3.27,0.79c-0.93,0.53-1.7,1.24-2.32,2.14c-0.63,0.9-1.11,1.93-1.42,3.11
				c-0.31,1.18-0.46,2.41-0.46,3.7v0.54C376.27,334.54,376.42,335.78,376.73,336.96z"/>
			<path class="st1" d="M413.72,319.73h10.06v3.49h-10.06v14.36c0,1.03,0.13,1.87,0.39,2.54c0.26,0.67,0.62,1.2,1.07,1.59
				c0.46,0.41,0.98,0.69,1.57,0.85c0.59,0.16,1.22,0.24,1.89,0.24c0.49,0,0.99-0.03,1.51-0.08c0.52-0.06,1.03-0.13,1.54-0.21
				c0.49-0.08,0.95-0.17,1.38-0.26c0.43-0.09,0.78-0.17,1.06-0.23l0.63,3.2c-0.38,0.23-0.83,0.43-1.37,0.6
				c-0.54,0.17-1.12,0.31-1.76,0.43c-0.63,0.13-1.31,0.23-2.01,0.29c-0.71,0.06-1.41,0.1-2.11,0.1c-1.17,0-2.27-0.17-3.28-0.5
				c-1.02-0.33-1.9-0.87-2.65-1.6c-0.75-0.72-1.34-1.65-1.77-2.79c-0.43-1.15-0.65-2.54-0.65-4.16v-14.36h-6.93v-3.49h6.93v-6.4
				h4.54V319.73z"/>
			<path class="st1" d="M469.77,323.22h-7.28v-3.49h7.28v-1.86c0-1.69,0.25-3.18,0.74-4.46c0.5-1.28,1.2-2.35,2.11-3.21
				c0.89-0.86,1.98-1.51,3.25-1.95s2.69-0.66,4.25-0.66c0.65,0,1.29,0.04,1.93,0.11c0.63,0.07,1.26,0.17,1.88,0.28
				c0.41,0.08,0.81,0.17,1.22,0.26c0.41,0.09,0.82,0.19,1.25,0.3l-0.54,3.74c-0.67-0.23-1.44-0.43-2.33-0.6
				c-0.89-0.17-1.84-0.26-2.84-0.26c-1.03,0-1.93,0.13-2.72,0.38c-0.79,0.25-1.45,0.63-1.97,1.13c-0.55,0.52-0.97,1.2-1.26,2.03
				c-0.29,0.83-0.43,1.8-0.43,2.91v1.86h10.18v3.49h-10.18v22.92h-4.54V323.22z"/>
			<path class="st1" d="M492.6,327.39c0.55-1.64,1.35-3.06,2.39-4.26c1.03-1.2,2.28-2.15,3.76-2.84c1.48-0.69,3.15-1.04,5-1.04
				c1.87,0,3.55,0.35,5.04,1.04c1.49,0.69,2.75,1.64,3.8,2.84c1.03,1.21,1.81,2.62,2.37,4.26c0.55,1.63,0.83,3.41,0.83,5.31v0.54
				c0,1.9-0.28,3.67-0.83,5.3c-0.55,1.63-1.34,3.04-2.37,4.25c-1.04,1.21-2.3,2.15-3.78,2.83c-1.48,0.68-3.15,1.03-5,1.03
				c-1.87,0-3.55-0.34-5.04-1.03c-1.49-0.68-2.75-1.63-3.77-2.83c-1.04-1.2-1.84-2.62-2.39-4.25c-0.55-1.63-0.83-3.39-0.83-5.3
				v-0.54C491.77,330.79,492.04,329.02,492.6,327.39z M496.75,336.96c0.31,1.18,0.78,2.22,1.42,3.11c0.62,0.9,1.4,1.6,2.34,2.12
				c0.94,0.52,2.04,0.78,3.3,0.78c1.24,0,2.32-0.26,3.26-0.78c0.94-0.52,1.72-1.23,2.36-2.12c0.62-0.89,1.08-1.93,1.39-3.11
				c0.31-1.18,0.46-2.42,0.46-3.72v-0.54c0-1.29-0.16-2.52-0.48-3.7c-0.32-1.18-0.79-2.22-1.4-3.11c-0.63-0.89-1.42-1.61-2.36-2.14
				c-0.94-0.53-2.03-0.79-3.28-0.79c-1.25,0-2.34,0.26-3.27,0.79c-0.93,0.53-1.7,1.24-2.32,2.14c-0.63,0.9-1.11,1.93-1.42,3.11
				c-0.31,1.18-0.46,2.41-0.46,3.7v0.54C496.29,334.54,496.44,335.78,496.75,336.96z"/>
			<path class="st1" d="M540.18,342.51c-0.88,1.3-1.98,2.32-3.3,3.04c-1.32,0.72-2.84,1.09-4.57,1.09c-1.38,0-2.64-0.22-3.76-0.65
				c-1.12-0.43-2.08-1.1-2.88-2.01c-0.8-0.91-1.41-2.07-1.84-3.48c-0.43-1.41-0.65-3.1-0.65-5.07v-15.7h4.52v15.75
				c0,1.43,0.11,2.62,0.34,3.56c0.23,0.94,0.57,1.69,1.03,2.25c0.46,0.57,1.01,0.97,1.67,1.2c0.66,0.23,1.42,0.34,2.28,0.34
				c1.01,0,1.91-0.12,2.71-0.35c0.8-0.24,1.49-0.57,2.08-0.99c0.49-0.34,0.92-0.75,1.28-1.23c0.37-0.48,0.67-1,0.92-1.57v-18.95
				h4.54v26.42h-4.1L540.18,342.51z"/>
			<path class="st1" d="M553.05,319.73h4.05l0.32,3.91c0.39-0.55,0.82-1.06,1.28-1.53c0.46-0.46,0.96-0.87,1.48-1.21
				c0.78-0.52,1.63-0.92,2.55-1.21c0.92-0.28,1.89-0.43,2.92-0.45c1.38,0,2.64,0.2,3.77,0.59c1.13,0.39,2.1,1,2.89,1.83
				c0.8,0.83,1.41,1.88,1.84,3.16c0.43,1.28,0.65,2.8,0.65,4.55v16.77h-4.52v-16.67c0-1.17-0.13-2.16-0.39-2.98
				c-0.26-0.81-0.64-1.47-1.15-1.98c-0.52-0.5-1.15-0.87-1.89-1.1c-0.74-0.23-1.59-0.34-2.55-0.34c-0.83,0-1.6,0.12-2.32,0.35
				c-0.72,0.24-1.38,0.56-1.98,0.96c-0.49,0.36-0.94,0.77-1.35,1.25c-0.42,0.47-0.78,0.99-1.09,1.56v18.95h-4.52V319.73z"/>
			<path class="st1" d="M582.94,327.29c0.5-1.65,1.21-3.07,2.14-4.26c0.91-1.19,2.02-2.12,3.32-2.78c1.3-0.67,2.76-1,4.37-1
				c1.58,0,2.96,0.26,4.14,0.79c1.18,0.53,2.2,1.3,3.06,2.31v-13.7h4.52v37.5h-4.15l-0.2-2.78c-0.88,1.07-1.93,1.89-3.15,2.44
				s-2.65,0.83-4.27,0.83c-1.6,0-3.04-0.34-4.33-1.03c-1.29-0.68-2.4-1.63-3.31-2.83c-0.91-1.2-1.62-2.62-2.12-4.26
				c-0.5-1.64-0.76-3.4-0.76-5.29v-0.51C582.2,330.75,582.45,328.94,582.94,327.29z M587.13,336.9c0.28,1.16,0.71,2.17,1.29,3.05
				c0.57,0.88,1.3,1.57,2.2,2.09c0.89,0.51,1.97,0.77,3.22,0.77c1.51,0,2.77-0.34,3.76-1.03c0.99-0.68,1.78-1.6,2.37-2.76v-12.26
				c-0.59-1.07-1.38-1.96-2.37-2.65c-0.99-0.69-2.23-1.04-3.71-1.04c-1.27,0-2.36,0.26-3.26,0.78c-0.9,0.52-1.64,1.22-2.21,2.1
				c-0.59,0.9-1.02,1.92-1.29,3.09c-0.28,1.16-0.42,2.39-0.42,3.67v0.51C586.71,334.52,586.85,335.74,587.13,336.9z"/>
		</g>
	</g>
</g>
</svg>
